<svg width="580" height="400" xmlns="http://www.w3.org/2000/svg" xmlns:xlink="http://www.w3.org/1999/xlink">
 <!-- Created with Method Draw - http://github.com/duopixel/Method-Draw/ -->

 <g>
  <title>background</title>
  <rect fill="#ff0000" id="canvas_background" height="402" width="582" y="-1" x="-1"/>
  <g display="none" overflow="visible" y="0" x="0" height="100%" width="100%" id="canvasGrid">
   <rect fill="url(#gridpattern)" stroke-width="0" y="0" x="0" height="100%" width="100%"/>
  </g>
 </g>
 <g>
  <title>Layer 1</title>
  <defs>
   <path d="m-31.5,0l33,0a30,30 0 0 0 30,-30l0,-10a30,30 0 0 0 -30,-30l-33,0l0,70zm13,-13l19,0a19,19 0 0 0 19,-19l0,-6a19,19 0 0 0 -19,-19l-19,0l0,44z" fill-rule="evenodd" id="svg_89"/>
   <path d="m-31.5,0l63,0l0,-13l-51,0l0,-18l40,0l0,-12l-40,0l0,-14l48,0l0,-13l-60,0l0,70z" id="svg_83"/>
   <path d="m-26.25,0l52.5,0l0,-12l-40.5,0l0,-16l33,0l0,-12l-33,0l0,-11l39.25,0l0,-12l-51.25,0l0,63z" id="svg_87"/>
   <g id="svg_85">
    <clipPath id="svg_94">
     <path id="svg_96" d="m-31.5,0l0,-70l63,0l0,70l-63,0zm31.5,-47l0,12l31.5,0l0,-12l-31.5,0z"/>
    </clipPath>
    <use id="svg_97" clip-path="url(#svg_94)" xlink:href="#svg_81"/>
    <rect id="svg_98" width="26.5" height="10" x="5" y="-35"/>
    <rect id="svg_99" width="10" height="35" x="21.5" y="-35"/>
   </g>
   <path d="m-31.5,0l12,0l0,-48l14,48l11,0l14,-48l0,48l12,0l0,-70l-17.5,0l-14,48l-14,-48l-17.5,0l0,70z" id="svg_88"/>
   <path d="m0,0a31.5,35 0 0 0 0,-70a31.5,35 0 0 0 0,70m0,-13a18.5,22 0 0 0 0,-44a18.5,22 0 0 0 0,44" fill-rule="evenodd" id="svg_81"/>
   <path d="m-31.5,0l13,0l0,-26l28,0a22,22 0 0 0 0,-44l-40,0l-1,70zm13,-39l27,0a9,9 0 0 0 0,-18l-27,0l0,18z" fill-rule="evenodd" id="svg_86"/>
   <g id="svg_84">
    <use id="svg_100" xlink:href="#svg_86"/>
    <path id="svg_101" d="m28,0c0,-10 0,-32 -15,-32l-19,0c22,0 22,22 22,32"/>
   </g>
   <path d="m-15.75,-22c0,7 6.75,10.5 16.75,10.5s14.74,-3.25 14.75,-7.75c0,-14.25 -46.75,-5.25 -46.5,-30.25c0.25,-21.5 24.75,-20.5 33.75,-20.5s26,4 25.75,21.25l-15.25,0c0,-7.5 -7,-10.25 -15,-10.25c-7.75,0 -13.25,1.25 -13.25,8.5c-0.25,11.75 46.25,4 46.25,28.75c0,18.25 -18,21.75 -31.5,21.75c-11.5,0 -31.55,-4.5 -31.5,-22l15.75,0z" id="svg_82"/>
   <g fill="#fff" id="svg_91">
    <g id="svg_92">
     <path d="m0,-1l0,1l0.5,0" transform="rotate(18 0,-1) " id="svg_93"/>
     <use id="svg_102" transform="scale(-1,1) " xlink:href="#svg_93"/>
    </g>
    <use id="svg_103" transform="rotate(72 0,0) " xlink:href="#svg_92"/>
    <use id="svg_104" transform="rotate(-72 0,0) " xlink:href="#svg_92"/>
    <use id="svg_105" transform="rotate(144 0,0) " xlink:href="#svg_92"/>
    <use id="svg_106" transform="rotate(216 0,0) " xlink:href="#svg_92"/>
   </g>
   <use transform="scale(31.5) " xlink:href="#svg_91" id="svg_52"/>
   <use transform="scale(26.25) " xlink:href="#svg_91" id="svg_57"/>
   <use transform="scale(21) " xlink:href="#svg_91" id="svg_54"/>
   <use transform="scale(15) " xlink:href="#svg_91" id="svg_59"/>
   <use transform="scale(10.5) " xlink:href="#svg_91" id="svg_50"/>
  </defs>
  <clipPath transform="matrix(0.0010078106480060495,0,0,0.0010078106480060495,68.78307287694601,48.14815101386222) " id="svg_90">
   <circle cx="224.4127" cy="159.8201" id="svg_110" r="735"/>
  </clipPath>
  <clipPath transform="matrix(25,0,0,25,0,0) " id="svg_157">
   <path id="svg_159" d="m-430,-160l30,0l0,15l-30,-15zl30,30l-30,0l0,-30zl-30,30l0,-15l30,-15zl-30,0l30,0z"/>
  </clipPath>
  <g id="svg_165">
   <path id="svg_160" fill="#00247d" d="m-460,-175l0,750l1500,0l0,-750l-1500,0z"/>
   <path id="svg_161" stroke-width="6" stroke="#fff" d="m-460,-175l1500,750m0,-750l-1500,750"/>
   <path id="svg_162" stroke-width="4" stroke="#cf142b" clip-path="url(#svg_157)" d="m-460,-175l1500,750m0,-750l-1500,750"/>
   <path id="svg_163" stroke-width="10" stroke="#fff" d="m290,-175l0,750m-750,-375l1500,0"/>
   <path id="svg_164" stroke-width="6" stroke="#cf142b" d="m290,-175l0,750m-750,-375l1500,0"/>
  </g>
  <rect stroke="#000" id="svg_166" height="420.71629" width="610.002864" y="-3.929547" x="-1.787106" stroke-width="1.5" fill="#fff"/>
  <ellipse ry="118.929135" rx="123.929158" id="svg_169" cy="199.999993" cx="290.000003" stroke-opacity="null" stroke-width="0" stroke="#000" fill="#bc002d"/>
 </g>
</svg>